PathFileType	4	(X/Y/Z)	/Users/itak/Documents/Research/Walk-IL/dataset/trc/00382_00012.trc
DataRate	CameraRate	NumFrames	NumMarkers	Units	OrigDataRate	OrigDataStartFrame	OrigNumFrames
100.000000	100.000000	4	54	mm	100.000000	280	560
Frame#	Time	RPSI			LPSI			L3			STRN			T10			C7			CLAV			RBAK			LBAK			LSHO			LUPA			LAEL			LAOL			LWTS			LWPS			LFRA			LIFD			LHPS			LHTS			RSHO			RUPA			RAEL			RAOL			RWTS			RWPS			RFRA			RIFD			RHPS			RBHD			LFHD			RFHD			LBHD			LHIP			RHIP			RASI			LASI			LKNE			LTHI			LANK			LTIP			LTOE			LMT1			LMT5			LHEE			RKNE			RTHI			RANK			RTIP			RTOE			RMT1			RMT5			RHEE			RHTS			*53			
		X1	Y1	Z1	X2	Y2	Z2	X3	Y3	Z3	X4	Y4	Z4	X5	Y5	Z5	X6	Y6	Z6	X7	Y7	Z7	X8	Y8	Z8	X9	Y9	Z9	X10	Y10	Z10	X11	Y11	Z11	X12	Y12	Z12	X13	Y13	Z13	X14	Y14	Z14	X15	Y15	Z15	X16	Y16	Z16	X17	Y17	Z17	X18	Y18	Z18	X19	Y19	Z19	X20	Y20	Z20	X21	Y21	Z21	X22	Y22	Z22	X23	Y23	Z23	X24	Y24	Z24	X25	Y25	Z25	X26	Y26	Z26	X27	Y27	Z27	X28	Y28	Z28	X29	Y29	Z29	X30	Y30	Z30	X31	Y31	Z31	X32	Y32	Z32	X33	Y33	Z33	X34	Y34	Z34	X35	Y35	Z35	X36	Y36	Z36	X37	Y37	Z37	X38	Y38	Z38	X39	Y39	Z39	X40	Y40	Z40	X41	Y41	Z41	X42	Y42	Z42	X43	Y43	Z43	X44	Y44	Z44	X45	Y45	Z45	X46	Y46	Z46	X47	Y47	Z47	X48	Y48	Z48	X49	Y49	Z49	X50	Y50	Z50	X51	Y51	Z51	X52	Y52	Z52	X53	Y53	Z53	X54	Y54	Z54	

281	2.8	-1023.287109375	972.7892456054688	172.9106292724609	-1024.725463867188	975.0626831054688	39.43046188354492	-1015.069030761719	1057.683227539062	113.4468688964844	-776.7103271484375	1202.170776367188	126.2377700805664	-1018.767578125	1156.522338867188	105.1760101318359	-979.4090576171875	1404.826538085938	105.8982620239258	-827.7366333007812	1322.54345703125	123.0576324462891	-1029.9189453125	1257.756591796875	165.71240234375	-988.6121826171875	1373.064086914062	1.950609087944031	-898.5157470703125	1388.626953125	-41.65192794799805	-930.8077392578125	1275.676147460938	-114.6764068603516	-932.6317138671875	1085.116943359375	-153.4709777832031	-981.6963500976562	1059.526123046875	-88.22138977050781	-853.6809692382812	863.754638671875	-146.3818359375	-914.5850219726562	861.0903930664062	-200.4736022949219	-926.9845581054688	982.4713134765625	-174.4614105224609	-872.0617065429688	686.5582885742188	-165.2481384277344	-905.9655151367188	774.5818481445312	-203.5365753173828	-847.6134033203125	768.3470458984375	-178.7138061523438	-937.7437744140625	1379.846557617188	266.67578125	-959.3370361328125	1315.804565429688	323.1314086914062	-971.9335327148438	1056.256103515625	371.5030822753906	-979.7267456054688	1044.240112304688	274.7306518554688	-849.1166381835938	843.3771362304688	387.2269287109375	-912.9374389648438	827.9194946289062	421.7806396484375	-955.6472778320312	991.8427124023438	393.8863220214844	-841.7982788085938	671.7277221679688	382.1371765136719	-904.0709228515625	738.6160888671875	420.8190002441406	-945.5047607421875	1588.333251953125	197.0140533447266	-803.0862426757812	1594.242797851562	57.07044982910156	-813.9185180664062	1601.350463867188	179.5363006591797	-949.1400756835938	1576.591430664062	35.09244537353516	-930.8169555664062	970.3782958984375	-70.01679992675781	-944.8676147460938	940.6929931640625	288.4379577636719	-811.1743774414062	951.4456176757812	239.1719360351562	-822.0799560546875	960.41357421875	-23.21881103515625	-829.3866577148438	473.5908203125	-7.807436943054199	-856.245849609375	612.8171997070312	-37.71286773681641	-931.9771118164062	37.40762329101562	53.72039413452148	-877.1410522460938	240.3176422119141	12.78533267974854	-726.6776123046875	57.4652099609375	138.4409332275391	-808.2991943359375	55.49427795410156	162.627197265625	-804.5194702148438	40.22909545898438	58.2325553894043	-973.0929565429688	40.69435501098633	106.7541275024414	-840.0402221679688	463.0753784179688	272.1073608398438	-847.2797241210938	716.0999755859375	286.8608093261719	-1161.04833984375	177.8555908203125	275.1470031738281	-903.6025390625	354.6858215332031	267.6769104003906	-1049.7421875	51.90286636352539	210.3110961914062	-1100.789794921875	98.85868835449219	181.7290802001953	-1114.3779296875	107.1070404052734	282.0421752929688	-1218.48974609375	222.8192901611328	220.7893981933594	-836.2683715820312	738.3714599609375	411.9520568847656	nan	nan	nan	
282	2.81	-1013.406799316406	974.275390625	173.7379150390625	-1015.736206054688	976.1817626953125	40.31365966796875	-1005.874389648438	1058.986206054688	113.7766799926758	-767.2973022460938	1203.766845703125	125.4998931884766	-1010.112487792969	1157.94775390625	104.596794128418	-969.98291015625	1406.1181640625	105.2641906738281	-818.3648071289062	1324.111938476562	122.5261154174805	-1020.580200195312	1259.029052734375	164.6809539794922	-979.1488647460938	1374.45751953125	1.277457714080811	-889.012451171875	1390.284301757812	-42.06728744506836	-920.0523071289062	1277.267456054688	-115.5152587890625	-918.4439086914062	1086.867309570312	-155.0619354248047	-968.0138549804688	1060.281127929688	-90.68619537353516	-833.8231811523438	868.1024169921875	-148.9015808105469	-894.031005859375	864.1697387695312	-203.6645812988281	-910.2410888671875	984.6732177734375	-176.7436218261719	-845.7620239257812	690.717041015625	-171.5446014404297	-882.3607788085938	778.2877807617188	-208.1534729003906	-823.919921875	773.737060546875	-182.9723205566406	-928.6939697265625	1380.949584960938	266.0687255859375	-950.6341552734375	1316.980224609375	322.205322265625	-964.9952392578125	1057.468872070312	369.9408264160156	-971.8580322265625	1045.619140625	273.062255859375	-844.124755859375	843.579345703125	387.0279846191406	-908.4959716796875	828.8436279296875	421.0159606933594	-949.5621337890625	993.0357666015625	392.5748901367188	-838.4639892578125	671.8783569335938	382.6182250976562	-900.4627685546875	739.4721069335938	420.5155639648438	-935.2028198242188	1589.757202148438	196.8555755615234	-792.3902587890625	1595.177612304688	57.35454177856445	-803.5725708007812	1602.004760742188	179.7965698242188	-938.5108032226562	1578.4716796875	34.87170791625977	-922.8596801757812	970.7758178710938	-70.10596466064453	-933.7952880859375	943.0044555664062	288.6422729492188	-800.9138793945312	953.650146484375	237.6089782714844	-813.5738525390625	960.8999633789062	-24.8674201965332	-828.160888671875	473.0702819824219	-9.131975173950195	-852.7437744140625	612.8583374023438	-38.51914978027344	-932.0865478515625	37.41582870483398	53.73581314086914	-876.9226684570312	240.1263427734375	12.19993686676025	-726.5925903320312	57.64247512817383	138.1350860595703	-808.1895751953125	55.61733627319336	162.4187316894531	-804.4521484375	40.06562042236328	58.05142593383789	-973.3278198242188	40.98278045654297	106.7133178710938	-817.4802856445312	467.2466125488281	270.7120666503906	-832.5205078125	719.7533569335938	286.9852905273438	-1129.546997070312	173.7642669677734	275.1812744140625	-877.9257202148438	357.4006042480469	266.4252624511719	-1012.793029785156	51.06924057006836	213.5436859130859	-1064.952270507812	95.33954620361328	183.8439331054688	-1079.646484375	105.5478134155273	283.7149353027344	-1188.6435546875	214.9298400878906	219.6080932617188	-832.59912109375	738.5869140625	412.2561340332031	nan	nan	nan	
283	2.82	-1003.513061523438	975.6105346679688	174.6956024169922	-1006.751159667969	977.1515502929688	41.33882522583008	-996.783935546875	1060.15869140625	114.2052841186523	-757.8843383789062	1205.226928710938	124.652946472168	-1001.433776855469	1159.241455078125	104.1641387939453	-960.5709228515625	1407.277954101562	104.6884765625	-808.9883422851562	1325.561279296875	121.9349822998047	-1011.202209472656	1260.169311523438	163.7265014648438	-969.7646484375	1375.722534179688	0.6802091002464294	-879.6297607421875	1391.8359375	-42.49193572998047	-909.5701293945312	1278.792358398438	-116.3376770019531	-904.5966186523438	1088.6220703125	-156.4875640869141	-954.5017700195312	1061.001098632812	-92.90457916259766	-813.9581909179688	872.7362060546875	-151.3690032958984	-873.596923828125	867.4193725585938	-206.6923522949219	-893.73779296875	986.921142578125	-178.8645477294922	-819.2694702148438	695.3951416015625	-177.5228271484375	-858.7565307617188	782.2905883789062	-212.5016937255859	-800.1990966796875	779.523193359375	-187.0658416748047	-919.5333862304688	1381.921630859375	265.4829711914062	-941.797607421875	1318.045532226562	321.3126220703125	-958.0209350585938	1058.582763671875	368.3560485839844	-963.9293823242188	1046.90185546875	271.4554443359375	-839.220458984375	843.6162719726562	386.7126159667969	-904.0958251953125	829.6865234375	420.2056579589844	-943.4442138671875	994.1250610351562	391.2503662109375	-835.47265625	671.8642578125	383.0242614746094	-897.0105590820312	740.2459716796875	420.1933288574219	-924.8907470703125	1591.032836914062	196.7191619873047	-781.720703125	1595.975952148438	57.6248779296875	-793.2212524414062	1602.507690429688	180.0403442382812	-927.902099609375	1580.229614257812	34.6848030090332	-915.1343383789062	971.0341186523438	-70.22825622558594	-922.5907592773438	945.1969604492188	288.9139709472656	-790.5950927734375	955.7330322265625	236.0449371337891	-805.1090698242188	961.2674560546875	-26.48324584960938	-826.9967041015625	472.5557861328125	-10.3871374130249	-849.26513671875	612.8609008789062	-39.24544143676758	-932.1898193359375	37.43886947631836	53.7835578918457	-876.7433471679688	239.9647369384766	11.6552619934082	-726.5070190429688	57.82442855834961	137.8539886474609	-808.08642578125	55.73103332519531	162.1793518066406	-804.394775390625	39.90288925170898	57.87793731689453	-973.5150146484375	41.26243591308594	106.7245864868164	-795.3402709960938	471.4923706054688	269.0038146972656	-817.7973022460938	723.4368286132812	287.0247497558594	-1097.31005859375	168.8291168212891	274.9307556152344	-852.39599609375	360.1051635742188	264.9473571777344	-974.7600708007812	50.3184814453125	216.3709259033203	-1028.318603515625	91.54743957519531	185.5689239501953	-1044.178833007812	103.4601287841797	285.0127868652344	-1158.028686523438	206.0293273925781	218.3162384033203	-829.1116943359375	738.6528930664062	412.4722900390625	nan	nan	nan	
284	2.83	-993.5982055664062	976.773681640625	175.7539520263672	-997.7542724609375	977.967529296875	42.46975708007812	-987.7532958984375	1061.1796875	114.7160339355469	-748.4527587890625	1206.522583007812	123.7142791748047	-992.6994018554688	1160.394409179688	103.8866119384766	-951.149169921875	1408.294921875	104.1683502197266	-799.5940551757812	1326.857666015625	121.2966995239258	-1001.771911621094	1261.165893554688	162.8480682373047	-960.433837890625	1376.844116210938	0.1514305770397186	-870.3314208984375	1393.254760742188	-42.92467498779297	-899.3223876953125	1280.226318359375	-117.1497650146484	-891.096435546875	1090.35791015625	-157.7584075927734	-941.181640625	1061.670043945312	-94.87922668457031	-794.13818359375	877.6466064453125	-153.7910003662109	-853.3251342773438	870.8055419921875	-209.5433044433594	-877.4921264648438	989.183837890625	-180.8207702636719	-792.6400146484375	700.5929565429688	-183.0998840332031	-835.2299194335938	786.55810546875	-216.5449523925781	-776.5499877929688	785.6890258789062	-190.9527893066406	-910.2511596679688	1382.745483398438	264.9186706542969	-932.8217163085938	1318.982421875	320.4541931152344	-951.0045166015625	1059.585083007812	366.7785034179688	-955.9420166015625	1048.07421875	269.922607421875	-834.3799438476562	843.47607421875	386.2522583007812	-899.6815185546875	830.4338989257812	419.3525695800781	-937.2626342773438	995.09521484375	389.9234924316406	-832.7623901367188	671.6785888671875	383.3153686523438	-893.6621704101562	740.9334106445312	419.8387756347656	-914.5721435546875	1592.133178710938	196.6007080078125	-771.0761108398438	1596.630981445312	57.87295913696289	-782.8555908203125	1602.8544921875	180.2612457275391	-917.308837890625	1581.83740234375	34.53446578979492	-907.5122680664062	971.1380615234375	-70.37933349609375	-911.2802734375	947.2288818359375	289.2320251464844	-780.2240600585938	957.6727294921875	234.5096588134766	-796.6458740234375	961.5250244140625	-28.03289604187012	-825.8434448242188	472.0460815429688	-11.54083442687988	-845.7651977539062	612.8207397460938	-39.86584091186523	-932.2786865234375	37.48380279541016	53.87459564208984	-876.5762329101562	239.8278350830078	11.17082977294922	-726.4243774414062	57.97252655029297	137.6077575683594	-807.9956665039062	55.82388687133789	161.9209747314453	-804.3483276367188	39.74517440795898	57.72338485717773	-973.6141357421875	41.51455307006836	106.8151321411133	-773.6535034179688	475.7685241699219	267.0215454101562	-803.1062622070312	727.107666015625	286.9729614257812	-1064.354736328125	163.0943603515625	274.3842468261719	-827.0718383789062	362.7662353515625	263.3037109375	-935.7417602539062	49.73220825195312	218.6963348388672	-991.0447998046875	87.59532928466797	186.8104858398438	-1008.015625	100.8899230957031	285.8915405273438	-1126.619995117188	196.2014465332031	216.8985748291016	-825.768310546875	738.5536499023438	412.5496520996094	nan	nan	nan	
